<?xml version="1.0" standalone="no"?>
<!DOCTYPE svg PUBLIC "-//W3C//DTD SVG 20010904//EN"
 "http://www.w3.org/TR/2001/REC-SVG-20010904/DTD/svg10.dtd">
<svg version="1.0" xmlns="http://www.w3.org/2000/svg"
 width="256.000000pt" height="256.000000pt" viewBox="0 0 256.000000 256.000000"
 preserveAspectRatio="xMidYMid meet">
<metadata>
Created by potrace 1.14, written by Peter Selinger 2001-2017
</metadata>
<g transform="translate(0.000000,256.000000) scale(0.100000,-0.100000)"
fill="#000000" stroke="none">
<path d="M53 2552 c-28 -3 -33 -7 -34 -30 -4 -88 -3 -452 1 -453 3 -1 25 -3
50 -4 108 -8 184 -26 250 -60 33 -17 96 -84 270 -288 108 -128 140 -171 129
-177 -88 -51 -211 -193 -272 -315 -208 -415 -45 -892 386 -1120 205 -109 508
-133 727 -56 161 56 251 112 370 232 98 99 153 189 201 329 28 84 32 110 35
220 2 69 -2 146 -7 170 -6 25 -12 52 -14 60 -30 136 -124 289 -254 413 l-71
67 126 147 c261 306 266 311 357 343 52 19 96 26 192 35 22 1 42 3 45 4 8 1 4
470 -3 478 -9 8 -132 7 -193 -2 -27 -4 -51 -7 -54 -7 -3 0 -43 -14 -90 -30
-97 -34 -184 -77 -250 -121 -59 -40 -201 -184 -270 -275 -30 -40 -62 -82 -72
-93 -9 -11 -31 -38 -50 -61 -133 -164 -255 -215 -374 -158 -71 35 -146 109
-259 255 -118 153 -208 250 -290 312 -163 123 -410 202 -582 185z m1362 -1317
c47 -20 123 -71 149 -99 27 -30 82 -117 90 -143 72 -230 -56 -467 -284 -526
-249 -64 -498 112 -514 363 -8 115 34 225 116 308 91 92 174 124 308 118 58
-3 111 -11 135 -21z"/>
</g>
</svg>
